<?xml version="1.0" encoding="UTF-8" standalone="no"?>
<!DOCTYPE svg PUBLIC "-//W3C//DTD SVG 1.1//EN"
 "http://www.w3.org/Graphics/SVG/1.1/DTD/svg11.dtd">
<!-- Generated by graphviz version 2.38.0 (20140413.2041)
 -->
<!-- Title: G Pages: 1 -->
<svg width="354pt" height="332pt"
 viewBox="0.00 0.00 354.39 332.00" xmlns="http://www.w3.org/2000/svg" xmlns:xlink="http://www.w3.org/1999/xlink">
<g id="graph0" class="graph" transform="scale(1 1) rotate(0) translate(4 328)">
<title>G</title>
<polygon fill="white" stroke="none" points="-4,4 -4,-328 350.392,-328 350.392,4 -4,4"/>
<!-- runtime -->
<g id="node1" class="node"><title>runtime</title>
<ellipse fill="none" stroke="black" cx="244.895" cy="-90" rx="38.9931" ry="18"/>
<text text-anchor="middle" x="244.895" y="-86.3" font-family="Times,serif" font-size="14.00">runtime</text>
</g>
<!-- unsafe -->
<g id="node2" class="node"><title>unsafe</title>
<ellipse fill="none" stroke="black" cx="158.895" cy="-18" rx="34.394" ry="18"/>
<text text-anchor="middle" x="158.895" y="-14.3" font-family="Times,serif" font-size="14.00">unsafe</text>
</g>
<!-- runtime&#45;&gt;unsafe -->
<g id="edge1" class="edge"><title>runtime&#45;&gt;unsafe</title>
<path fill="none" stroke="black" d="M226.234,-73.811C214.043,-63.8879 197.96,-50.797 184.569,-39.8972"/>
<polygon fill="black" stroke="black" points="186.603,-37.04 176.638,-33.4417 182.184,-42.4689 186.603,-37.04"/>
</g>
<!-- sync -->
<g id="node3" class="node"><title>sync</title>
<ellipse fill="none" stroke="black" cx="121.895" cy="-162" rx="27.8951" ry="18"/>
<text text-anchor="middle" x="121.895" y="-158.3" font-family="Times,serif" font-size="14.00">sync</text>
</g>
<!-- sync&#45;&gt;runtime -->
<g id="edge2" class="edge"><title>sync&#45;&gt;runtime</title>
<path fill="none" stroke="black" d="M142.206,-149.441C161.277,-138.588 190.127,-122.169 212.397,-109.495"/>
<polygon fill="black" stroke="black" points="214.224,-112.482 221.184,-104.494 210.762,-106.398 214.224,-112.482"/>
</g>
<!-- sync&#45;&gt;unsafe -->
<g id="edge4" class="edge"><title>sync&#45;&gt;unsafe</title>
<path fill="none" stroke="black" d="M126.285,-144.153C132.593,-119.944 144.289,-75.054 151.825,-46.1327"/>
<polygon fill="black" stroke="black" points="155.261,-46.8272 154.396,-36.2678 148.487,-45.0622 155.261,-46.8272"/>
</g>
<!-- sync/atomic -->
<g id="node4" class="node"><title>sync/atomic</title>
<ellipse fill="none" stroke="black" cx="55.895" cy="-90" rx="55.7903" ry="18"/>
<text text-anchor="middle" x="55.895" y="-86.3" font-family="Times,serif" font-size="14.00">sync/atomic</text>
</g>
<!-- sync&#45;&gt;sync/atomic -->
<g id="edge3" class="edge"><title>sync&#45;&gt;sync/atomic</title>
<path fill="none" stroke="black" d="M107.898,-146.155C99.4553,-137.2 88.4949,-125.576 78.8147,-115.309"/>
<polygon fill="black" stroke="black" points="81.1314,-112.664 71.7247,-107.789 76.0383,-117.466 81.1314,-112.664"/>
</g>
<!-- sync/atomic&#45;&gt;unsafe -->
<g id="edge5" class="edge"><title>sync/atomic&#45;&gt;unsafe</title>
<path fill="none" stroke="black" d="M78.7541,-73.4647C93.856,-63.2013 113.776,-49.6635 129.978,-38.6527"/>
<polygon fill="black" stroke="black" points="132.238,-41.3481 138.542,-32.8324 128.304,-35.5585 132.238,-41.3481"/>
</g>
<!-- syscall -->
<g id="node5" class="node"><title>syscall</title>
<ellipse fill="none" stroke="black" cx="188.895" cy="-234" rx="35.9954" ry="18"/>
<text text-anchor="middle" x="188.895" y="-230.3" font-family="Times,serif" font-size="14.00">syscall</text>
</g>
<!-- syscall&#45;&gt;runtime -->
<g id="edge6" class="edge"><title>syscall&#45;&gt;runtime</title>
<path fill="none" stroke="black" d="M195.539,-216.153C205.18,-191.706 223.138,-146.171 234.529,-117.286"/>
<polygon fill="black" stroke="black" points="237.847,-118.412 238.26,-107.825 231.335,-115.844 237.847,-118.412"/>
</g>
<!-- syscall&#45;&gt;unsafe -->
<g id="edge8" class="edge"><title>syscall&#45;&gt;unsafe</title>
<path fill="none" stroke="black" d="M186.491,-215.849C181.301,-178.832 169.014,-91.1809 162.734,-46.3863"/>
<polygon fill="black" stroke="black" points="166.165,-45.6497 161.311,-36.2325 159.233,-46.6215 166.165,-45.6497"/>
</g>
<!-- syscall&#45;&gt;sync -->
<g id="edge7" class="edge"><title>syscall&#45;&gt;sync</title>
<path fill="none" stroke="black" d="M174.026,-217.465C164.967,-208.001 153.244,-195.752 143.209,-185.268"/>
<polygon fill="black" stroke="black" points="145.706,-182.815 136.263,-178.011 140.649,-187.656 145.706,-182.815"/>
</g>
<!-- time -->
<g id="node6" class="node"><title>time</title>
<ellipse fill="none" stroke="black" cx="220.895" cy="-306" rx="27.0966" ry="18"/>
<text text-anchor="middle" x="220.895" y="-302.3" font-family="Times,serif" font-size="14.00">time</text>
</g>
<!-- time&#45;&gt;runtime -->
<g id="edge10" class="edge"><title>time&#45;&gt;runtime</title>
<path fill="none" stroke="black" d="M225.866,-287.965C228.678,-277.647 232.001,-264.17 233.895,-252 241.14,-205.444 243.613,-150.577 244.457,-118.409"/>
<polygon fill="black" stroke="black" points="247.965,-118.105 244.693,-108.028 240.967,-117.946 247.965,-118.105"/>
</g>
<!-- time&#45;&gt;sync -->
<g id="edge11" class="edge"><title>time&#45;&gt;sync</title>
<path fill="none" stroke="black" d="M198.641,-295.207C181.159,-286.381 157.559,-271.753 143.895,-252 131.272,-233.751 125.873,-208.983 123.573,-190.209"/>
<polygon fill="black" stroke="black" points="127.051,-189.808 122.567,-180.209 120.086,-190.509 127.051,-189.808"/>
</g>
<!-- time&#45;&gt;syscall -->
<g id="edge12" class="edge"><title>time&#45;&gt;syscall</title>
<path fill="none" stroke="black" d="M213.311,-288.411C209.58,-280.249 204.996,-270.22 200.811,-261.065"/>
<polygon fill="black" stroke="black" points="203.987,-259.596 196.646,-251.956 197.621,-262.506 203.987,-259.596"/>
</g>
<!-- errors -->
<g id="node7" class="node"><title>errors</title>
<ellipse fill="none" stroke="black" cx="313.895" cy="-234" rx="32.4942" ry="18"/>
<text text-anchor="middle" x="313.895" y="-230.3" font-family="Times,serif" font-size="14.00">errors</text>
</g>
<!-- time&#45;&gt;errors -->
<g id="edge9" class="edge"><title>time&#45;&gt;errors</title>
<path fill="none" stroke="black" d="M238.388,-291.834C252.061,-281.541 271.307,-267.055 286.946,-255.284"/>
<polygon fill="black" stroke="black" points="289.32,-257.878 295.204,-249.068 285.11,-252.286 289.32,-257.878"/>
</g>
</g>
</svg>
